<svg width="45" height="45" viewBox="0 0 45 45" fill="none" xmlns="http://www.w3.org/2000/svg">
<g id="Tilda_Icons_1ed_book">
<g id="Group">
<path id="Vector" d="M41.6386 27.0717L38.3219 24.8307V18.1076L41.6386 15.9114C41.8179 15.7769 41.9524 15.5976 41.9524 15.3735C41.9524 15.1494 41.8179 14.9253 41.6386 14.8357L24.5619 3.36159C24.3378 3.22713 24.0241 3.22713 23.8 3.36159L2.73426 17.4353C2.64461 17.4801 2.59979 17.5249 2.55497 17.6146C2.55497 17.6146 2.55497 17.6146 2.55497 17.6594C2.46533 17.7939 2.46533 17.8835 2.46533 18.018V30.3437C2.46533 30.5678 2.59979 30.7919 2.77908 30.8815L19.8558 42.266C19.9902 42.3556 20.0799 42.4004 20.2143 42.4004C20.3488 42.4004 20.4833 42.3556 20.5729 42.266L41.6835 28.1923C41.8627 28.0578 41.9972 27.8785 41.9972 27.6544C41.9524 27.3855 41.8179 27.1614 41.6386 27.0717ZM24.2034 4.75103L40.0699 15.3287L37.4703 17.0319C37.3358 17.0767 37.2014 17.1664 37.1117 17.256L20.1695 28.5508L7.44043 20.0797C7.39561 20.0349 7.35079 20.0349 7.35079 19.9901L4.30298 17.9731L24.2034 4.75103ZM7.66454 21.8725L19.7661 29.9403C19.9902 30.0747 20.304 30.0747 20.5281 29.9403L36.9773 18.9592V24.4721L20.2592 35.498L7.66454 27.4303V21.8725ZM20.1695 40.8765L3.76513 29.9403V19.2729L6.36473 20.9761V27.7889C6.36473 28.013 6.4992 28.2371 6.67848 28.3715L19.9454 36.8875C20.0351 36.9771 20.1695 36.9771 20.304 36.9771C20.4384 36.9771 20.5729 36.9323 20.6625 36.8875L37.4255 25.8616L40.0699 27.6544L20.1695 40.8765Z" fill="white"/>
<path id="Vector_2" d="M21.2901 10.8915L29.2682 16.3596C29.4026 16.4493 29.5371 16.4941 29.6268 16.4941C29.8509 16.4941 30.0301 16.4044 30.1646 16.1803C30.3887 15.8666 30.2991 15.4632 29.9853 15.2391L22.0521 9.77097C21.7383 9.54687 21.3349 9.63651 21.1108 9.95026C20.8867 10.264 20.9764 10.6674 21.2901 10.8915Z" fill="white"/>
</g>
</g>
</svg>
