<svg width="45" height="45" viewBox="0 0 45 45" fill="none" xmlns="http://www.w3.org/2000/svg">
<g id="Tilda_Icons_1ed_brain">
<g id="Group">
<path id="Vector" d="M42.2991 20.3901C42.2991 18.7359 41.5525 17.1856 40.2804 16.1538C40.3357 15.8896 40.3632 15.6358 40.3632 15.3861C40.3632 13.3255 38.8395 11.6142 36.8599 11.3194C36.9054 11.0827 36.927 10.8505 36.927 10.6192C36.927 8.4255 35.1981 6.63315 33.0322 6.5193C32.9967 6.51345 32.9607 6.5085 32.9233 6.5085C32.9053 6.5085 32.8878 6.51075 32.8693 6.5112C32.8513 6.51075 32.8338 6.5085 32.8153 6.5085C32.6092 6.5085 32.4018 6.52695 32.1826 6.5652C31.8019 4.54695 30.0438 3.04395 27.936 3.04395C25.546 3.04395 23.6016 4.9884 23.6016 7.3788V37.0419C23.6016 40.0672 26.0626 42.5278 29.0875 42.5278C31.0945 42.5278 32.9161 41.442 33.8782 39.7171C34.0938 39.7639 34.3008 39.7927 34.5087 39.8062C35.815 39.8895 37.0872 39.4615 38.0754 38.5944C39.0636 37.7272 39.6549 36.5271 39.7404 35.2149C39.7759 34.6681 39.7147 34.1196 39.559 33.5778C41.2672 32.3668 42.2712 30.4494 42.2712 28.3483C42.2712 26.8251 41.7226 25.3626 40.7209 24.1975C41.7289 23.1769 42.2991 21.8116 42.2991 20.3901ZM40.9221 28.3492C40.9221 29.917 40.2102 31.3552 38.9893 32.3178C38.0857 30.8796 36.4828 29.9611 34.7472 29.9611C34.3746 29.9611 34.0722 30.2635 34.0722 30.6361C34.0722 31.0087 34.3746 31.3111 34.7472 31.3111C36.2506 31.3111 37.62 32.253 38.1591 33.6547C38.3436 34.1443 38.4255 34.6398 38.3935 35.128C38.3314 36.0802 37.9026 36.951 37.1853 37.5801C36.468 38.2096 35.5468 38.5224 34.5969 38.4594C34.3296 38.4418 34.0533 38.3842 33.727 38.2785C33.394 38.1696 33.0336 38.3343 32.8963 38.6565C32.2461 40.1883 30.7507 41.1783 29.0871 41.1783C26.8065 41.1783 24.9511 39.3229 24.9511 37.0423V7.37925C24.9511 5.7336 26.2899 4.3944 27.9355 4.3944C29.4646 4.3944 30.7228 5.5473 30.8866 7.053C29.6487 7.7622 28.8112 9.09375 28.8112 10.6197C28.8112 10.9927 29.1136 11.2947 29.4862 11.2947C29.8588 11.2947 30.1612 10.9927 30.1612 10.6197C30.1612 9.11535 31.3713 7.89045 32.8684 7.8612C34.3656 7.89045 35.5756 9.11535 35.5756 10.6192C35.5756 10.8991 35.523 11.1889 35.4141 11.5062C35.3884 11.5809 35.3763 11.6592 35.3776 11.7379C35.3781 11.7564 35.379 11.7735 35.3808 11.7897C35.3781 11.7991 35.3763 11.8054 35.3763 11.8054C35.3232 12.0147 35.3736 12.237 35.5117 12.403C35.6499 12.5691 35.856 12.6591 36.0747 12.6451C36.1215 12.642 36.1683 12.6361 36.2511 12.6244C37.7734 12.6244 39.0123 13.8633 39.0123 15.3856C39.0123 15.643 38.9659 15.9072 38.8674 16.2177C38.776 16.5034 38.8845 16.8153 39.1333 16.9827C40.2286 17.7202 40.8924 18.9307 40.9396 20.2416C40.9396 20.2434 40.9392 20.2452 40.9392 20.247C40.9392 22.5105 39.0978 24.3523 36.8343 24.3523C34.5708 24.3523 32.7289 22.5105 32.7289 20.247C32.7289 19.8739 32.4265 19.572 32.0539 19.572C31.6813 19.572 31.3789 19.8739 31.3789 20.247C31.3789 23.2552 33.826 25.7023 36.8343 25.7023C37.8369 25.7023 38.7738 25.4256 39.582 24.9517C40.446 25.8922 40.9221 27.0951 40.9221 28.3492Z" fill="white"/>
<path id="Vector_2" d="M17.1806 3.04395C15.0728 3.04395 13.3151 4.54695 12.9348 6.5652C12.7152 6.52695 12.5078 6.5085 12.3017 6.5085C12.2837 6.5085 12.2661 6.51075 12.2477 6.5112C12.2297 6.51075 12.2121 6.5085 12.1937 6.5085C12.1563 6.5085 12.1203 6.51345 12.0848 6.5193C9.91891 6.63315 8.19046 8.4255 8.19046 10.6192C8.19046 10.8505 8.21251 11.0827 8.25751 11.3194C6.27796 11.6142 4.75426 13.3255 4.75426 15.3861C4.75426 15.6354 4.78171 15.8892 4.83706 16.1538C3.56491 17.1856 2.81836 18.7359 2.81836 20.3901C2.81836 21.8116 3.38806 23.1769 4.39561 24.1984C3.39346 25.3635 2.84491 26.826 2.84491 28.3492C2.84491 30.4503 3.84886 32.3673 5.55706 33.5787C5.40091 34.1205 5.34016 34.669 5.37616 35.2162C5.46166 36.528 6.05251 37.7281 7.04071 38.5953C8.02891 39.4629 9.29746 39.8908 10.6074 39.8071C10.8122 39.7936 11.021 39.7639 11.2374 39.7176C12.1995 41.4429 14.0211 42.5287 16.0281 42.5287C19.053 42.5287 21.5141 40.0677 21.5141 37.0428V7.3788C21.515 4.9884 19.5705 3.04395 17.1806 3.04395ZM20.165 37.0419C20.165 39.3225 18.3096 41.1778 16.029 41.1778C14.3654 41.1778 12.87 40.1878 12.2202 38.656C12.1118 38.4009 11.8634 38.2447 11.5988 38.2447C11.5295 38.2447 11.4588 38.2551 11.3895 38.278C11.0637 38.3838 10.7874 38.4414 10.5197 38.459C9.56611 38.5215 8.64856 38.2087 7.93171 37.5796C7.21441 36.9505 6.78556 36.0798 6.72346 35.1276C6.68926 34.6056 6.77971 34.0764 6.99256 33.5548C6.99571 33.5472 6.99481 33.5386 6.99751 33.531C7.60141 32.1558 8.89876 31.3021 10.4162 31.3021C10.7892 31.3021 11.0912 30.9997 11.0912 30.6271C11.0912 30.2545 10.7892 29.9521 10.4162 29.9521C8.64406 29.9521 7.04071 30.8553 6.11956 32.3097C4.90411 31.3471 4.19491 29.9125 4.19491 28.3488C4.19491 27.0946 4.67191 25.8918 5.53501 24.9517C6.34321 25.4256 7.28056 25.7023 8.28316 25.7023C11.2914 25.7023 13.7385 23.2552 13.7385 20.247C13.7385 19.8739 13.4366 19.572 13.0635 19.572C12.6905 19.572 12.3885 19.8739 12.3885 20.247C12.3885 22.5105 10.5471 24.3523 8.28316 24.3523C6.01921 24.3523 4.17781 22.5105 4.17781 20.247C4.17781 20.2461 4.17736 20.2452 4.17736 20.2443C4.22371 18.9325 4.88746 17.7211 5.98321 16.9827C6.23206 16.8153 6.34006 16.5039 6.24916 16.2181C6.15016 15.9072 6.10426 15.643 6.10426 15.3856C6.10426 13.8664 7.33771 12.6294 8.89201 12.6294C8.89516 12.6294 8.89876 12.6294 8.90191 12.6294C8.94826 12.6357 8.99461 12.6415 9.04186 12.6447C9.26011 12.6582 9.46846 12.5677 9.60616 12.4008C9.74431 12.2334 9.79381 12.0102 9.73846 11.8005C9.73846 11.8 9.73711 11.7942 9.73486 11.7865C9.73621 11.7708 9.73756 11.7564 9.73801 11.7438C9.74026 11.6628 9.72811 11.5822 9.70156 11.5057C9.59266 11.1876 9.54001 10.8973 9.54001 10.6183C9.54001 9.11445 10.7496 7.8891 12.2472 7.8603C13.7448 7.88955 14.9544 9.11445 14.9544 10.6188C14.9544 10.9918 15.2564 11.2938 15.6294 11.2938C16.0025 11.2938 16.3044 10.9918 16.3044 10.6188C16.3044 9.09285 15.467 7.7613 14.229 7.0521C14.3928 5.5464 15.651 4.3935 17.1801 4.3935C18.8258 4.3935 20.1645 5.7327 20.1645 7.37835V37.0419H20.165Z" fill="white"/>
</g>
</g>
</svg>
