<svg width="35" height="35" viewBox="0 0 35 35" fill="none" xmlns="http://www.w3.org/2000/svg">
<g id="vscode-icons:file-type-outlook">
<path id="Vector" d="M21.3105 8.68066V14.6711L23.4062 15.9891C23.4818 16.0057 23.5602 16.0057 23.6359 15.9891L32.6462 9.91441C32.6396 9.61959 32.5317 9.33602 32.3407 9.11135C32.1497 8.88668 31.8872 8.7346 31.5973 8.68066H21.3105Z" fill="white"/>
<path id="Vector_2" d="M21.3103 16.9056L23.221 18.2181C23.3105 18.2726 23.4132 18.3014 23.518 18.3014C23.6228 18.3014 23.7255 18.2726 23.815 18.2181C23.4868 18.4161 32.6448 12.3359 32.6448 12.3359V23.3456C32.6687 23.5687 32.6435 23.7943 32.5711 24.0067C32.4987 24.219 32.3807 24.413 32.2255 24.575C32.0702 24.737 31.8815 24.8631 31.6724 24.9446C31.4634 25.026 31.239 25.0607 31.0151 25.0464H21.3092V16.9056H21.3103ZM11.4184 14.1439C11.1009 14.1424 10.7889 14.2268 10.5155 14.3881C10.2421 14.5495 10.0174 14.7818 9.86527 15.0605C9.44977 15.7992 9.25041 16.6398 9.28996 17.4864C9.24677 18.3313 9.44641 19.1708 9.86527 19.9058C10.0168 20.173 10.2359 20.3956 10.5007 20.5513C10.7655 20.7069 11.0666 20.7902 11.3737 20.7926C11.6809 20.795 11.9832 20.7166 12.2505 20.5652C12.5177 20.4137 12.7403 20.1946 12.896 19.9298C13.3103 19.1982 13.5058 18.3631 13.4593 17.5236C13.5068 16.6578 13.3177 15.7953 12.9125 15.0287C12.7676 14.7592 12.5519 14.5343 12.2886 14.3783C12.0253 14.2224 11.7244 14.1413 11.4184 14.1439Z" fill="white"/>
<path id="Vector_3" d="M2.35449 5.63828V29.0741L20.1826 32.8125V2.1875L2.35449 5.63828ZM14.2851 21.3183C13.9516 21.7884 13.5082 22.1699 12.9934 22.4293C12.4787 22.6888 11.9083 22.8184 11.332 22.8069C10.7702 22.8169 10.2143 22.691 9.71155 22.44C9.20882 22.189 8.77414 21.8203 8.44449 21.3653C7.66266 20.2738 7.27156 18.9506 7.33434 17.6094C7.26783 16.2024 7.666 14.8127 8.46746 13.6544C8.80518 13.1752 9.25559 12.7865 9.77898 12.5226C10.3024 12.2586 10.8827 12.1274 11.4687 12.1406C12.0265 12.1294 12.5784 12.2553 13.0761 12.5072C13.5739 12.7592 14.0022 13.1294 14.3234 13.5855C15.0974 14.7007 15.4819 16.0401 15.4171 17.3961C15.4853 18.7929 15.0871 20.1727 14.2851 21.3183Z" fill="white"/>
</g>
</svg>
