<svg width="35" height="35" viewBox="0 0 35 35" fill="none" xmlns="http://www.w3.org/2000/svg">
<g id="bxl:microsoft-teams">
<path id="Vector" d="M29.587 14.6575C30.9619 14.6575 32.0764 13.5429 32.0764 12.1681C32.0764 10.7932 30.9619 9.67871 29.587 9.67871C28.2122 9.67871 27.0977 10.7932 27.0977 12.1681C27.0977 13.5429 28.2122 14.6575 29.587 14.6575Z" fill="white"/>
<path id="Vector_2" d="M27.0977 16.7901H32.0749V22.1218C32.0749 23.4955 30.9593 24.6097 29.5856 24.6097H27.0977V16.7901ZM2.92578 6.1253V28.8753L19.2781 31.7613V3.23926L2.92578 6.1253ZM15.0124 14.0163L12.1687 14.0878V22.4761H10.0352V14.2293L7.19287 14.3722V12.453L15.0124 12.0272V14.0163ZM20.6985 14.6566V26.7432H23.5422C24.7206 26.7432 25.6758 25.788 25.6758 24.6111V14.6566H20.6985ZM22.832 7.54717C21.9774 7.54717 21.2206 7.93217 20.6985 8.52863V12.2547C21.2191 12.8511 21.9774 13.2361 22.832 13.2361C23.5864 13.2361 24.3099 12.9364 24.8434 12.403C25.3768 11.8696 25.6765 11.1461 25.6765 10.3917C25.6765 9.63725 25.3768 8.91375 24.8434 8.3803C24.3099 7.84686 23.5864 7.54717 22.832 7.54717Z" fill="white"/>
</g>
</svg>
