<svg width="45" height="45" viewBox="0 0 45 45" fill="none" xmlns="http://www.w3.org/2000/svg">
<g id="Tilda_Icons_1ed_group">
<path id="Vector" d="M34.4673 15.2388V14.0287C35.9912 13.1323 36.9772 11.4739 36.9772 9.68108V7.52969C36.9772 4.7508 34.7362 2.50977 31.9573 2.50977C29.1784 2.50977 26.8926 4.7508 26.8926 7.52969V9.68108C26.8926 11.4291 27.789 13.0426 29.3129 13.939V15.2388C28.6406 15.4181 28.0131 15.6871 27.3856 16.0456C26.3996 13.7598 24.1137 12.1462 21.4693 12.1462C18.8697 12.1462 16.6735 13.6701 15.6426 15.9112C15.0599 15.6422 14.4772 15.3733 13.8946 15.2388V14.0287C15.4185 13.1323 16.4045 11.4739 16.4045 9.68108V7.52969C16.4045 4.7508 14.1635 2.50977 11.3846 2.50977C8.60573 2.50977 6.3647 4.7508 6.3647 7.52969V9.68108C6.3647 11.4291 7.26111 13.0426 8.78502 13.939V15.2388C4.75115 16.4042 2.01709 20.0347 2.01709 24.2478C2.01709 24.6064 2.33083 24.9201 2.6894 24.9201H15.9563C16.0012 24.9201 16.046 24.9201 16.0908 24.9201C16.6286 25.7717 17.3906 26.4888 18.287 27.0267V29.0436C12.9533 30.4779 9.32287 35.2737 9.32287 40.8315C9.32287 41.19 9.63661 41.5038 9.99518 41.5038H33.0778C33.4364 41.5038 33.7502 41.19 33.7502 40.8315C33.7502 35.3185 29.9404 30.4331 24.6516 29.0436V27.1163C25.5928 26.5785 26.3547 25.8614 26.9374 24.9649H40.6974C41.0559 24.9649 41.3697 24.6512 41.3697 24.2926C41.3249 20.0795 38.4563 16.3594 34.4673 15.2388ZM3.36171 23.6203C3.63064 20.1243 6.1406 17.2558 9.59179 16.449C9.90554 16.3594 10.1296 16.0904 10.1296 15.7767V13.5357C10.1296 13.2667 9.99518 13.0426 9.77107 12.953C8.51609 12.3255 7.70932 11.0705 7.70932 9.68108V7.52969C7.70932 5.51275 9.36769 3.85439 11.3846 3.85439C13.4016 3.85439 15.0599 5.51275 15.0599 7.52969V9.68108C15.0599 11.0705 14.2083 12.3703 12.9533 12.9978C12.7292 13.0875 12.55 13.3564 12.55 13.6253V15.7767C12.55 16.0904 12.7741 16.3594 13.0878 16.449C13.8498 16.6283 14.5669 16.8972 15.2392 17.2558C15.1496 17.704 15.1047 18.1522 15.1047 18.6452V21.5137C15.1047 22.2309 15.2392 22.948 15.4633 23.6203H3.36171ZM23.6655 26.0855C23.4414 26.1751 23.2621 26.444 23.2621 26.713V29.5815C23.2621 29.8952 23.4862 30.1641 23.8 30.2538C28.551 31.2847 32.047 35.4082 32.3607 40.204H10.6675C10.9364 35.4082 14.3428 31.3743 19.0938 30.2986C19.4075 30.209 19.6316 29.94 19.6316 29.6263V26.6681C19.6316 26.3992 19.4972 26.1751 19.2731 26.0855C17.5251 25.2339 16.4494 23.4859 16.4494 21.5586V18.69C16.4494 15.8663 18.7352 13.6253 21.5141 13.6253C24.293 13.6253 26.5788 15.9112 26.5788 18.69V21.5137C26.5788 23.441 25.4583 25.2339 23.6655 26.0855ZM27.5649 23.6203C27.789 22.948 27.9235 22.2309 27.9235 21.5137V18.6452C27.9235 18.2418 27.8786 17.7936 27.789 17.4351C28.5061 16.9869 29.3129 16.6731 30.1197 16.4938C30.4334 16.4042 30.6575 16.1353 30.6575 15.8215V13.5805C30.6575 13.3116 30.5231 13.0875 30.299 12.9978C29.044 12.3703 28.2372 11.1153 28.2372 9.7259V7.57451C28.2372 5.55757 29.8956 3.89921 31.9125 3.89921C33.9294 3.89921 35.5878 5.55757 35.5878 7.57451V9.7259C35.5878 11.1153 34.7362 12.4151 33.4812 13.0426C33.2571 13.1323 33.0778 13.4012 33.0778 13.6701V15.8215C33.0778 16.1353 33.3019 16.4042 33.6157 16.4938C37.0669 17.2558 39.6217 20.2139 39.9354 23.6651L27.5649 23.6203Z" fill="white"/>
</g>
</svg>
