<svg width="45" height="45" viewBox="0 0 45 45" fill="none" xmlns="http://www.w3.org/2000/svg">
<g id="Tilda_Icons_1ed_hourglass">
<path id="Vector" d="M34.4671 10.3536L34.9601 8.47113H37.1115C37.5149 8.47113 37.8287 8.15738 37.8287 7.754V4.61655C37.8287 4.21316 37.5149 3.89941 37.1115 3.89941H7.8436C7.44021 3.89941 7.12646 4.21316 7.12646 4.61655V7.754C7.12646 8.15738 7.44021 8.47113 7.8436 8.47113H9.99499L10.488 10.3536C11.743 15.5528 15.4631 19.6763 20.483 21.514V23.2171C15.5079 25.0548 11.7878 29.1783 10.488 34.3775L9.86053 36.7082H7.8436C7.44021 36.7082 7.12646 37.0219 7.12646 37.4253V40.5628C7.12646 40.9661 7.44021 41.2799 7.8436 41.2799H37.1115C37.5149 41.2799 37.8287 40.9661 37.8287 40.5628V37.4253C37.8287 37.0219 37.5149 36.7082 37.1115 36.7082H35.0946L34.5119 34.3327C33.1673 29.1783 29.4472 25.0548 24.4721 23.2171V21.514C29.4472 19.6763 33.1673 15.5528 34.4671 10.3536ZM8.56073 5.33368H36.3496V6.99204H8.56073V5.33368ZM36.3944 39.8456H8.60555V38.1873H36.3944V39.8456ZM23.5757 24.3377C28.3715 25.9064 31.9571 29.8058 33.1673 34.6912L33.6603 36.7082H11.25L11.743 34.6912C12.998 29.8058 16.5836 25.9064 21.3346 24.3377C21.6036 24.248 21.7828 23.9791 21.7828 23.7102V21.0657C21.7828 20.7968 21.6036 20.5279 21.3346 20.4383C16.5836 18.7799 12.998 14.9253 11.7878 10.0399L11.3844 8.47113H33.5707L33.1673 10.0399C31.9571 14.9253 28.3715 18.7799 23.5757 20.3934C23.3067 20.4831 23.1275 20.752 23.1275 21.0209V23.6653C23.1275 23.9791 23.3067 24.248 23.5757 24.3377Z" fill="white"/>
</g>
</svg>
