<svg width="45" height="45" viewBox="0 0 45 45" fill="none" xmlns="http://www.w3.org/2000/svg">
<g id="Tilda_Icons_1ed_lightbulb 14">
<path id="Vector" d="M31.0725 5.13081C28.0287 2.62237 24.0216 1.62419 20.0809 2.39143C14.7757 3.42414 10.5148 7.90248 9.71934 13.2821C9.07048 17.6721 10.6301 22.0563 13.8914 25.0105C15.3609 26.3414 16.2474 28.2584 16.3882 30.409C16.3909 30.448 16.3985 30.4857 16.407 30.5229V37.2666C16.407 37.6379 16.7079 37.9393 17.0797 37.9393H17.75C18.0231 39.8939 19.4599 41.3907 21.1903 41.3907H24.244C25.9745 41.3907 27.4107 39.8939 27.6838 37.9393H28.3542C28.7255 37.9393 29.0268 37.6379 29.0268 37.2666V30.4153C29.0268 30.4139 29.0273 30.4126 29.0273 30.4108C29.0273 28.4099 29.9358 26.4777 31.5859 24.9701C34.3043 22.4868 35.8629 18.9546 35.8629 15.2798C35.8634 11.3391 34.1173 7.63971 31.0725 5.13081ZM20.3387 17.8964H19.3051C18.7352 17.8964 18.2715 17.4327 18.2715 16.8628C18.2715 16.2928 18.7352 15.8291 19.3051 15.8291C19.8751 15.8291 20.3387 16.2928 20.3387 16.8628V17.8964ZM25.096 16.8628C25.096 16.2928 25.5597 15.8291 26.1301 15.8291C26.7 15.8291 27.1637 16.2928 27.1637 16.8628C27.1637 17.4327 26.7 17.8964 26.1301 17.8964H25.0974L25.096 16.8628ZM24.6911 31.0354H27.682V36.594H27.0664C27.065 36.594 27.0637 36.5936 27.0619 36.5936C27.0601 36.5936 27.0592 36.594 27.0574 36.594H18.3769C18.3756 36.594 18.3742 36.5936 18.3724 36.5936C18.3706 36.5936 18.3698 36.594 18.368 36.594H17.7527V31.0354H24.1947H24.6911ZM21.684 29.6902V19.2416H23.7543L23.7696 29.6902H21.684ZM24.244 40.0455H21.1903C20.1867 40.0455 19.3442 39.1468 19.111 37.9393H26.3229C26.0901 39.1468 25.2476 40.0455 24.244 40.0455ZM30.6788 23.9773C28.9425 25.5634 27.9148 27.5705 27.7224 29.6902H25.1144L25.0996 19.2416H26.1301C27.4417 19.2416 28.5089 18.1744 28.5089 16.8628C28.5089 15.5511 27.4417 14.4839 26.1301 14.4839C24.818 14.4839 23.7508 15.5511 23.7508 16.8636L23.7521 17.8964H21.684V16.8628C21.684 15.5511 20.6168 14.4839 19.3051 14.4839C17.9935 14.4839 16.9263 15.5511 16.9263 16.8628C16.9263 18.1744 17.9935 19.2416 19.3051 19.2416H20.3387V29.6902H17.6608C17.3756 27.4458 16.3765 25.4459 14.7941 24.0132C11.8668 21.3613 10.4668 17.4233 11.0498 13.4785C11.7632 8.65358 15.5824 4.63755 20.3374 3.71157C23.8835 3.02191 27.4843 3.91695 30.216 6.1689C32.9496 8.4213 34.5172 11.7423 34.5172 15.2803C34.5181 18.5779 33.1186 21.7483 30.6788 23.9773Z" fill="white"/>
</g>
</svg>
