<svg width="25" height="25" viewBox="0 0 25 25" fill="none" xmlns="http://www.w3.org/2000/svg">
<g id="financial-gain 1">
<g clip-path="url(#clip0_7736_295)">
<rect width="25" height="25" rx="12.5" fill="#FF5561"/>
<path id="financial  gain 1" d="M17.1875 24.4998C13.2492 24.4998 10.0289 21.3701 9.88047 17.4686H7.03125C6.87578 17.4686 6.75 17.3428 6.75 17.1873V7.03105C6.75 6.87559 6.87578 6.7498 7.03125 6.7498H10.9375C11.0125 6.7498 11.0836 6.77949 11.1359 6.83184C11.1891 6.88496 11.2187 6.95605 11.2187 7.03105V12.9646C11.7031 12.2764 12.307 11.6748 13 11.1943V0.780273C13 0.624805 13.1258 0.499023 13.2812 0.499023H17.1875C17.2625 0.499023 17.3344 0.528711 17.3867 0.581055C17.4391 0.634961 17.4687 0.706836 17.4687 0.781055L17.468 9.88027C21.3703 10.0279 24.5 13.249 24.5 17.1873C24.5 21.2193 21.2195 24.4998 17.1875 24.4998ZM17.1875 10.4373C15.8445 10.4373 14.5484 10.8311 13.4375 11.5771C12.4844 12.2084 11.707 13.0818 11.1883 14.1045C10.6969 15.049 10.4375 16.1146 10.4375 17.1873C10.4375 20.9092 13.4656 23.9373 17.1875 23.9373C20.9094 23.9373 23.9375 20.9092 23.9375 17.1873C23.9375 13.4654 20.9094 10.4373 17.1875 10.4373ZM7.3125 16.9061H9.88047C9.92109 15.8631 10.1867 14.8342 10.6562 13.91V7.3123H7.3125V16.9061ZM13.5625 1.0623L13.5617 10.8381C13.6281 10.8006 13.6945 10.7631 13.7625 10.7271C14.243 10.4709 14.7492 10.2709 15.2727 10.1287C15.8031 9.98496 16.35 9.90137 16.9055 9.88027L16.9062 1.0623H13.5625ZM17.4687 21.0936H16.9062V19.8123H14.8437V19.2498H18.3594C18.8508 19.2498 19.25 18.8506 19.25 18.3592C19.25 17.8678 18.8508 17.4686 18.3594 17.4686H16.0148C15.2141 17.4686 14.5625 16.8162 14.5625 16.0154C14.5625 15.2146 15.2141 14.5623 16.0148 14.5623H16.9062V13.2811H17.4695V14.5623H19.5312V15.1256H16.0148C15.5242 15.1256 15.125 15.5248 15.125 16.0162C15.125 16.5076 15.5242 16.9068 16.0148 16.9068H18.3594C19.1602 16.9068 19.8125 17.5592 19.8125 18.36C19.8125 19.1607 19.1602 19.8131 18.3594 19.8131H17.4687V21.0936ZM4.6875 17.4686H0.78125C0.625781 17.4686 0.5 17.3428 0.5 17.1873V11.7186C0.5 11.5631 0.625781 11.4373 0.78125 11.4373H4.6875C4.84297 11.4373 4.96875 11.5631 4.96875 11.7186V17.1873C4.96875 17.3428 4.84297 17.4686 4.6875 17.4686ZM1.0625 16.9061H4.40625V11.9998H1.0625V16.9061Z" fill="white"/>
</g>
</g>
<defs>
<clipPath id="clip0_7736_295">
<rect width="25" height="25" rx="12.5" fill="white"/>
</clipPath>
</defs>
</svg>
