<svg width="25" height="25" viewBox="0 0 25 25" fill="none" xmlns="http://www.w3.org/2000/svg">
<g id="renew-team 1">
<g clip-path="url(#clip0_7736_116)">
<rect width="25" height="25" rx="12.5" fill="#FF5561"/>
<path id="renew  team 1" d="M12.3226 13.1309C12.3114 13.2536 12.2224 13.3563 12.1021 13.3843C10.7806 13.6979 9.85765 14.8646 9.85765 16.2238V19.2301H9.28029V16.2238C9.28029 14.8077 10.1167 13.5664 11.3764 13.0195C10.929 12.6233 10.6603 12.0492 10.6603 11.4333C10.6603 10.6106 11.1326 9.89613 11.8199 9.5465C11.8792 9.38132 11.9089 9.20811 11.9089 9.02929C11.9089 8.18009 11.2184 7.48966 10.3692 7.48966C9.52005 7.48966 8.82963 8.18009 8.82963 9.02929C8.82963 9.63632 9.18887 10.188 9.74538 10.435C9.85845 10.4855 9.92661 10.6018 9.91538 10.7253C9.90415 10.8488 9.81515 10.9506 9.69486 10.9795C8.37415 11.293 7.45198 12.4606 7.45198 13.819V16.8244H6.87382V13.8198C6.87382 12.4044 7.70939 11.1623 8.96835 10.6154C8.5209 10.2201 8.25227 9.64594 8.25227 9.02929C8.25227 7.86174 9.2017 6.9123 10.3692 6.9123C11.5368 6.9123 12.4862 7.86174 12.4862 9.02929C12.4862 9.13433 12.479 9.23858 12.4638 9.34122C12.6675 9.31155 12.884 9.31155 13.0876 9.34122C13.0724 9.23858 13.0652 9.13514 13.0652 9.02929C13.0652 7.86174 14.0146 6.9123 15.1822 6.9123C16.3489 6.9123 17.2992 7.86174 17.2992 9.02929C17.2992 9.64514 17.0305 10.2193 16.5823 10.6154C17.8412 11.1623 18.6776 12.4036 18.6776 13.8198V16.8244H18.1002V13.8198C18.1002 12.4614 17.1781 11.2938 15.8574 10.9803C15.7371 10.9514 15.6481 10.8496 15.6368 10.7261C15.6256 10.6026 15.6938 10.4863 15.8068 10.4358C16.3626 10.1888 16.7218 9.63632 16.7218 9.03009C16.7218 8.18089 16.0322 7.49046 15.183 7.49046C14.3338 7.49046 13.6434 8.18089 13.6434 9.03009C13.6434 9.20811 13.673 9.38132 13.7316 9.54731C14.4204 9.89693 14.8943 10.6114 14.8943 11.4349C14.8943 12.0508 14.6257 12.6249 14.1774 13.0211C15.4356 13.5672 16.2719 14.8093 16.2719 16.2254V19.2301H15.6946V16.2238C15.6946 14.8654 14.7732 13.6979 13.4525 13.3843C13.3322 13.3563 13.2432 13.2536 13.232 13.1301C13.2208 13.0075 13.2889 12.8904 13.402 12.8399C13.9577 12.5929 14.3169 12.0404 14.3169 11.4341C14.3169 10.5858 13.6265 9.89613 12.7765 9.89613C11.9281 9.89613 11.2385 10.5858 11.2385 11.4341C11.2385 12.0412 11.5977 12.5929 12.1534 12.8399C12.2657 12.8904 12.3339 13.0074 12.3226 13.1309ZM2.63986 12.8126C2.63986 7.47282 6.79524 3.09532 12.042 2.71683L10.9683 3.79056L11.3764 4.19872L13.1839 2.39046L11.3756 0.583008L10.9675 0.991168L12.1118 2.13626C6.51458 2.48108 2.0625 7.13042 2.0625 12.8126C2.0625 17.8051 5.45127 22.0928 10.3035 23.2387L10.4366 22.6766C5.8458 21.5917 2.63986 17.5357 2.63986 12.8126ZM23.4889 12.815C23.4889 7.82245 20.0993 3.53475 15.2479 2.38806L15.1148 2.95018C19.7056 4.03433 22.9116 8.09108 22.9116 12.815C22.9116 18.1556 18.757 22.5347 13.5102 22.9132L14.584 21.8402L14.175 21.4313L12.3676 23.2395L14.175 25.0478L14.584 24.6388L13.4397 23.4945C19.0376 23.1489 23.4889 18.4988 23.4889 12.815Z" fill="white"/>
</g>
</g>
<defs>
<clipPath id="clip0_7736_116">
<rect width="25" height="25" rx="12.5" fill="white"/>
</clipPath>
</defs>
</svg>
