<svg width="25" height="25" viewBox="0 0 25 25" fill="none" xmlns="http://www.w3.org/2000/svg">
<g id="path 2">
<g clip-path="url(#clip0_7736_409)">
<rect width="25" height="25" rx="12.5" fill="#FF5561"/>
<path id="path 1" d="M21.0937 23.7188C19.7414 23.7188 18.6242 22.6906 18.4836 21.375H15.1102C14.9695 22.6906 13.8531 23.7188 12.5 23.7188C11.0523 23.7188 9.875 22.5406 9.875 21.0937C9.875 19.7414 10.9031 18.6242 12.2187 18.4836V15.1102C10.9031 14.9695 9.875 13.8531 9.875 12.5C9.875 11.1477 10.9031 10.0305 12.2187 9.88984V6.51641C10.9953 6.38594 10.0211 5.41094 9.88984 4.1875H6.51641C6.37578 5.50312 5.25859 6.53125 3.90625 6.53125C2.45859 6.53125 1.28125 5.35391 1.28125 3.90625C1.28125 2.45859 2.45859 1.28125 3.90625 1.28125C5.25859 1.28125 6.37578 2.30937 6.51641 3.625H9.88984C10.0305 2.30937 11.1477 1.28125 12.5 1.28125C13.9477 1.28125 15.125 2.45859 15.125 3.90625C15.125 5.25859 14.0969 6.37578 12.7812 6.51641V9.88984C14.0969 10.0305 15.125 11.1477 15.125 12.5C15.125 13.8523 14.0969 14.9695 12.7812 15.1102V18.4836C14.0047 18.6141 14.9797 19.5891 15.1102 20.8117H18.4836C18.6242 19.4961 19.7406 18.468 21.0937 18.468C22.5414 18.468 23.7188 19.6461 23.7188 21.093C23.7188 22.5398 22.5414 23.7188 21.0937 23.7188ZM21.0937 19.0312C19.9562 19.0312 19.0312 19.9562 19.0312 21.0937C19.0312 22.2312 19.9562 23.1562 21.0937 23.1562C22.2312 23.1562 23.1562 22.2312 23.1562 21.0937C23.1562 19.9562 22.2312 19.0312 21.0937 19.0312ZM12.5 19.0312C11.3625 19.0312 10.4375 19.9562 10.4375 21.0937C10.4375 22.2312 11.3633 23.1562 12.5 23.1562C13.6375 23.1562 14.5625 22.2312 14.5625 21.0937C14.5625 19.9562 13.6375 19.0312 12.5 19.0312ZM12.5 10.4375C11.3625 10.4375 10.4375 11.3633 10.4375 12.5C10.4375 13.6375 11.3633 14.5625 12.5 14.5625C13.6375 14.5625 14.5625 13.6375 14.5625 12.5C14.5625 11.3625 13.6375 10.4375 12.5 10.4375ZM12.5 1.84375C11.3625 1.84375 10.4375 2.76953 10.4375 3.90625C10.4375 5.04297 11.3625 5.96875 12.5 5.96875C13.6375 5.96875 14.5625 5.04297 14.5625 3.90625C14.5625 2.76953 13.6375 1.84375 12.5 1.84375ZM3.90625 1.84375C2.76875 1.84375 1.84375 2.76875 1.84375 3.90625C1.84375 5.04375 2.76875 5.96875 3.90625 5.96875C5.04375 5.96875 5.96875 5.04375 5.96875 3.90625C5.96875 2.76875 5.04375 1.84375 3.90625 1.84375ZM3.90625 23.7188C2.45859 23.7188 1.28125 22.5406 1.28125 21.0937C1.28125 19.6469 2.45859 18.4687 3.90625 18.4687C5.35391 18.4687 6.53125 19.6461 6.53125 21.0937C6.53125 22.5414 5.35391 23.7188 3.90625 23.7188ZM3.90625 19.0312C2.76875 19.0312 1.84375 19.9562 1.84375 21.0937C1.84375 22.2312 2.76875 23.1562 3.90625 23.1562C5.04375 23.1562 5.96875 22.2312 5.96875 21.0937C5.96875 19.9562 5.04375 19.0312 3.90625 19.0312ZM21.0937 15.125C19.6461 15.125 18.4687 13.9469 18.4687 12.5C18.4687 11.0531 19.6469 9.875 21.0937 9.875C22.5406 9.875 23.7188 11.0523 23.7188 12.5C23.7188 13.9477 22.5414 15.125 21.0937 15.125ZM21.0937 10.4375C19.9562 10.4375 19.0312 11.3633 19.0312 12.5C19.0312 13.6375 19.9562 14.5625 21.0937 14.5625C22.2312 14.5625 23.1562 13.6375 23.1562 12.5C23.1562 11.3625 22.2312 10.4375 21.0937 10.4375ZM3.90625 15.125C2.45859 15.125 1.28125 13.9469 1.28125 12.5C1.28125 11.0531 2.45859 9.875 3.90625 9.875C5.35391 9.875 6.53125 11.0523 6.53125 12.5C6.53125 13.9477 5.35391 15.125 3.90625 15.125ZM3.90625 10.4375C2.76875 10.4375 1.84375 11.3633 1.84375 12.5C1.84375 13.6375 2.76953 14.5625 3.90625 14.5625C5.04297 14.5625 5.96875 13.6375 5.96875 12.5C5.96875 11.3625 5.04375 10.4375 3.90625 10.4375ZM21.0937 6.53125C19.6461 6.53125 18.4687 5.35391 18.4687 3.90625C18.4687 2.45859 19.6461 1.28125 21.0937 1.28125C22.5414 1.28125 23.7188 2.45859 23.7188 3.90625C23.7188 5.35391 22.5414 6.53125 21.0937 6.53125ZM21.0937 1.84375C19.9562 1.84375 19.0312 2.76953 19.0312 3.90625C19.0312 5.04297 19.9562 5.96875 21.0937 5.96875C22.2312 5.96875 23.1562 5.04375 23.1562 3.90625C23.1562 2.76875 22.2312 1.84375 21.0937 1.84375Z" fill="white"/>
</g>
</g>
<defs>
<clipPath id="clip0_7736_409">
<rect width="25" height="25" rx="12.5" fill="white"/>
</clipPath>
</defs>
</svg>
