<svg width="25" height="25" viewBox="0 0 25 25" fill="none" xmlns="http://www.w3.org/2000/svg">
<g id="enterprise-design-thinking-02 1">
<g clip-path="url(#clip0_7736_203)">
<rect width="25" height="25" rx="12.5" fill="#FF5561"/>
<path id="enterprise  design  thinking  02 1" d="M24.2188 24.5H0.78125V23.9375H24.2188V24.5ZM24.2188 21.375H12.5V20.8125H24.2188V21.375ZM5.78828 17.4688C4.41016 17.4688 3.00859 16.9688 2.00703 15.9781C1.03516 15.0172 0.5 13.7844 0.5 12.5078C0.5 11.2313 1.03516 9.99844 2.00625 9.03672C3.96094 7.10391 7.42656 7.02734 9.27656 8.87813L16.1469 15.7477C17.775 17.3773 20.8508 17.2883 22.5977 15.5609C23.4609 14.7063 23.9375 13.6188 23.9375 12.4984C23.9375 11.3781 23.4617 10.2906 22.5977 9.43516C20.8531 7.70859 17.7633 7.63359 16.1164 9.27969L14.2609 11.1352L13.8625 10.7375L15.718 8.88203C17.5703 7.02891 21.0383 7.10156 22.993 9.03516C23.9648 9.99687 24.5 11.2266 24.5 12.4984C24.5 13.7703 23.9648 15 22.993 15.9609C21.0391 17.8945 17.5859 17.9836 15.7492 16.1461L8.87969 9.27578C7.23516 7.63281 4.14844 7.70938 2.40234 9.43672C1.53828 10.2922 1.0625 11.3828 1.0625 12.5078C1.0625 13.6328 1.53828 14.7234 2.40234 15.5781C4.14375 17.2992 7.22969 17.3688 8.87813 15.7219L10.2563 14.3438H7.8125V13.7813H11.2188V17.1875H10.6563V14.7383L9.275 16.1203C8.37422 17.0211 7.09141 17.468 5.78828 17.4688ZM12.5 4.1875H0.78125V3.625H12.5V4.1875ZM24.2188 1.0625H0.78125V0.5H24.2188V1.0625Z" fill="white"/>
</g>
</g>
<defs>
<clipPath id="clip0_7736_203">
<rect width="25" height="25" rx="12.5" fill="white"/>
</clipPath>
</defs>
</svg>
