<svg width="25" height="25" viewBox="0 0 25 25" fill="none" xmlns="http://www.w3.org/2000/svg">
<g id="build-leadership-and-culture 1">
<g clip-path="url(#clip0_7736_121)">
<rect width="25" height="25" rx="12.5" fill="#FF5561"/>
<path id="build  leadership  and  culture 1" d="M21.875 11.6094C22.6758 11.6094 23.3281 10.9578 23.3281 10.1562C23.3281 9.35469 22.6758 8.70312 21.875 8.70312C21.0742 8.70312 20.4219 9.35469 20.4219 10.1562C20.4219 10.9578 21.0742 11.6094 21.875 11.6094ZM21.875 9.26562C22.3664 9.26562 22.7656 9.66562 22.7656 10.1562C22.7656 10.6469 22.3664 11.0469 21.875 11.0469C21.3836 11.0469 20.9844 10.6469 20.9844 10.1562C20.9844 9.66562 21.3836 9.26562 21.875 9.26562ZM24.5 14.8438V17.9688C24.5 18.6195 24.5 19.6789 23.7187 20.1031V24.2188H23.1562V19.9219C23.1562 19.8039 23.2312 19.6977 23.3422 19.657C23.8914 19.4594 23.9375 18.7148 23.9375 17.9688V14.8438C23.9375 13.668 23.0508 12.7813 21.875 12.7813C20.6992 12.7813 19.8125 13.668 19.8125 14.8438V17.9688C19.8125 18.7148 19.8586 19.4594 20.4078 19.657C20.5195 19.6977 20.5937 19.8039 20.5937 19.9219V24.2188H20.0312V20.1031C19.25 19.6789 19.25 18.6195 19.25 17.9688V14.8438C19.25 13.3719 20.4039 12.2188 21.875 12.2188C23.3461 12.2188 24.5 13.3719 24.5 14.8438ZM3.125 11.6094C3.92578 11.6094 4.57812 10.9578 4.57812 10.1562C4.57812 9.35469 3.92578 8.70312 3.125 8.70312C2.32422 8.70312 1.67188 9.35547 1.67188 10.1562C1.67188 10.957 2.32422 11.6094 3.125 11.6094ZM3.125 9.26562C3.61562 9.26562 4.01562 9.66562 4.01562 10.1562C4.01562 10.6469 3.61562 11.0469 3.125 11.0469C2.63437 11.0469 2.23437 10.6469 2.23437 10.1562C2.23437 9.66562 2.63437 9.26562 3.125 9.26562ZM5.75 14.8438V17.9688C5.75 18.5766 5.75 19.6734 4.96875 20.1023V24.2188H4.40625V19.9219C4.40625 19.8039 4.48047 19.6977 4.59219 19.657C5.14141 19.4594 5.1875 18.7141 5.1875 17.9688V14.8438C5.1875 13.668 4.30078 12.7813 3.125 12.7813C1.94922 12.7813 1.0625 13.668 1.0625 14.8438V17.9688C1.0625 18.7141 1.10859 19.4594 1.65781 19.657C1.76953 19.6977 1.84375 19.8039 1.84375 19.9219V24.2188H1.28125V20.1023C0.5 19.6727 0.5 18.5766 0.5 17.9688V14.8438C0.5 13.3719 1.65313 12.2188 3.125 12.2188C4.59687 12.2188 5.75 13.3719 5.75 14.8438ZM12.5 4.96875C13.732 4.96875 14.7344 3.96641 14.7344 2.73438C14.7344 1.50234 13.7312 0.5 12.5 0.5C11.268 0.5 10.2656 1.50234 10.2656 2.73438C10.2656 3.96641 11.2672 4.96875 12.5 4.96875ZM12.5 1.0625C13.4219 1.0625 14.1711 1.8125 14.1711 2.73438C14.1711 3.65625 13.4219 4.40625 12.5 4.40625C11.5781 4.40625 10.8281 3.65625 10.8281 2.73438C10.8281 1.8125 11.5773 1.0625 12.5 1.0625ZM16.4062 21.5938H14.3437V15.8156C15.3125 15.382 15.9062 14.4297 15.9062 13.282V9.37578C15.9062 7.40234 14.4734 5.96953 12.4992 5.96953C10.5258 5.96953 9.09375 7.40156 9.09375 9.37578V13.282C9.09375 14.4297 9.6875 15.382 10.6562 15.8156V21.5938H8.59375C8.43828 21.5938 8.3125 21.7195 8.3125 21.875V24.2188H8.875V22.1563H16.125V24.2188H16.6883V21.875C16.6875 21.7195 16.5617 21.5938 16.4062 21.5938ZM11.0336 15.3602C10.1836 15.0539 9.65625 14.257 9.65625 13.2813V9.375C9.65625 7.72734 10.8523 6.53125 12.5 6.53125C14.1484 6.53125 15.3437 7.72734 15.3437 9.375V13.2813C15.3437 14.257 14.8164 15.0539 13.9672 15.3602C13.8555 15.4008 13.7812 15.507 13.7812 15.625V21.5938H11.2187V15.625C11.2187 15.507 11.1445 15.4008 11.0336 15.3602Z" fill="white"/>
</g>
</g>
<defs>
<clipPath id="clip0_7736_121">
<rect width="25" height="25" rx="12.5" fill="white"/>
</clipPath>
</defs>
</svg>
